<svg xmlns="http://www.w3.org/2000/svg" viewBox="0 0 512 512" width="24" height="24" fill="#ffffff">
  <path d="M437 222a75 75 0 00-17 2c-5-47-45-84-93-84a93 93 0 00-41 9c-9 4-10 10-10 15v181c0 5 5 10 10 10h151c35 0 64-29 64-65 0-35-29-64-64-64zM113 197a10 10 0 00-10 10v119a10 10 0 0020 0V207a10 10 0 00-10-10zm-40 30a10 10 0 00-10 10v89a10 10 0 0020 0v-89a10 10 0 00-10-10zm80-45a10 10 0 00-10 10v134a10 10 0 0020 0V192a10 10 0 00-10-10zm40 15a10 10 0 00-10 10v119a10 10 0 0020 0V207a10 10 0 00-10-10zm40 25a10 10 0 00-10 10v94a10 10 0 0020 0v-94a10 10 0 00-10-10z"></path>
</svg>
